<mxfile host="app.diagrams.net" agent="Mozilla/5.0 (Windows NT 10.0; Win64; x64) AppleWebKit/537.36 (KHTML, like Gecko) Chrome/127.0.0.0 Safari/537.36" version="24.7.6">
  <diagram name="Page-1" id="j0fCDUgEydv8VJdV81uv">
    <mxGraphModel dx="1434" dy="746" grid="1" gridSize="10" guides="1" tooltips="1" connect="1" arrows="1" fold="1" page="1" pageScale="1" pageWidth="850" pageHeight="1100" math="0" shadow="0">
      <root>
        <mxCell id="0" />
        <mxCell id="1" parent="0" />
        <mxCell id="w32qKdAZumEgRM9tF9tT-64" style="edgeStyle=orthogonalEdgeStyle;rounded=0;orthogonalLoop=1;jettySize=auto;html=1;exitX=0.5;exitY=1;exitDx=0;exitDy=0;entryX=0.5;entryY=0;entryDx=0;entryDy=0;" edge="1" parent="1" source="w32qKdAZumEgRM9tF9tT-1" target="w32qKdAZumEgRM9tF9tT-4">
          <mxGeometry relative="1" as="geometry" />
        </mxCell>
        <mxCell id="w32qKdAZumEgRM9tF9tT-1" value="Start game" style="rounded=0;whiteSpace=wrap;html=1;" vertex="1" parent="1">
          <mxGeometry x="312" y="200" width="120" height="60" as="geometry" />
        </mxCell>
        <mxCell id="w32qKdAZumEgRM9tF9tT-3" value="&lt;span style=&quot;text-align: left; font-size: 14px;&quot;&gt;House Rules&lt;/span&gt;&lt;div style=&quot;text-align: left; font-size: 14px;&quot;&gt;## The deck is unlimited in size.&amp;nbsp;&lt;br style=&quot;font-size: 14px;&quot;&gt;## There are no jokers.&amp;nbsp;&lt;br style=&quot;font-size: 14px;&quot;&gt;## The Jack/Queen/King all count as 10.&lt;br style=&quot;font-size: 14px;&quot;&gt;## The the Ace can count as 11 or 1.&lt;br style=&quot;font-size: 14px;&quot;&gt;## Use the following list as the deck of cards:&lt;br style=&quot;font-size: 14px;&quot;&gt;## cards = [11, 2, 3, 4, 5, 6, 7, 8, 9, 10, 10, 10, 10]&lt;br style=&quot;font-size: 14px;&quot;&gt;## The cards in the list have equal probability of being drawn.&lt;br style=&quot;font-size: 14px;&quot;&gt;## Cards are not removed from the deck as they are drawn.&lt;br style=&quot;font-size: 14px;&quot;&gt;## The computer is the dealer.&lt;/div&gt;&lt;div style=&quot;text-align: left; font-size: 14px;&quot;&gt;## dealer must draw if 16 or under&lt;/div&gt;" style="text;html=1;align=center;verticalAlign=middle;whiteSpace=wrap;rounded=0;fontSize=14;" vertex="1" parent="1">
          <mxGeometry width="400" height="210" as="geometry" />
        </mxCell>
        <mxCell id="w32qKdAZumEgRM9tF9tT-15" value="" style="edgeStyle=orthogonalEdgeStyle;rounded=0;orthogonalLoop=1;jettySize=auto;html=1;" edge="1" parent="1" source="w32qKdAZumEgRM9tF9tT-4" target="w32qKdAZumEgRM9tF9tT-6">
          <mxGeometry relative="1" as="geometry" />
        </mxCell>
        <mxCell id="w32qKdAZumEgRM9tF9tT-65" value="Yes" style="edgeStyle=orthogonalEdgeStyle;rounded=0;orthogonalLoop=1;jettySize=auto;html=1;exitX=0.5;exitY=1;exitDx=0;exitDy=0;entryX=0.5;entryY=0;entryDx=0;entryDy=0;" edge="1" parent="1" source="w32qKdAZumEgRM9tF9tT-4" target="w32qKdAZumEgRM9tF9tT-8">
          <mxGeometry relative="1" as="geometry" />
        </mxCell>
        <mxCell id="w32qKdAZumEgRM9tF9tT-4" value="Play game?" style="rounded=0;whiteSpace=wrap;html=1;" vertex="1" parent="1">
          <mxGeometry x="312" y="280" width="120" height="60" as="geometry" />
        </mxCell>
        <mxCell id="w32qKdAZumEgRM9tF9tT-6" value="No" style="rounded=0;whiteSpace=wrap;html=1;" vertex="1" parent="1">
          <mxGeometry x="150" y="280" width="120" height="60" as="geometry" />
        </mxCell>
        <mxCell id="w32qKdAZumEgRM9tF9tT-20" value="" style="edgeStyle=orthogonalEdgeStyle;rounded=0;orthogonalLoop=1;jettySize=auto;html=1;" edge="1" parent="1" source="w32qKdAZumEgRM9tF9tT-8" target="w32qKdAZumEgRM9tF9tT-10">
          <mxGeometry relative="1" as="geometry" />
        </mxCell>
        <mxCell id="w32qKdAZumEgRM9tF9tT-8" value="Welcome logo" style="rounded=0;whiteSpace=wrap;html=1;" vertex="1" parent="1">
          <mxGeometry x="312" y="413" width="120" height="60" as="geometry" />
        </mxCell>
        <mxCell id="w32qKdAZumEgRM9tF9tT-19" value="" style="edgeStyle=orthogonalEdgeStyle;rounded=0;orthogonalLoop=1;jettySize=auto;html=1;" edge="1" parent="1" source="w32qKdAZumEgRM9tF9tT-9" target="w32qKdAZumEgRM9tF9tT-10">
          <mxGeometry relative="1" as="geometry" />
        </mxCell>
        <mxCell id="w32qKdAZumEgRM9tF9tT-9" value="PC - Draw 2." style="rounded=0;whiteSpace=wrap;html=1;" vertex="1" parent="1">
          <mxGeometry x="312" y="497" width="120" height="60" as="geometry" />
        </mxCell>
        <mxCell id="w32qKdAZumEgRM9tF9tT-70" value="" style="edgeStyle=orthogonalEdgeStyle;rounded=0;orthogonalLoop=1;jettySize=auto;html=1;" edge="1" parent="1" source="w32qKdAZumEgRM9tF9tT-10" target="w32qKdAZumEgRM9tF9tT-69">
          <mxGeometry relative="1" as="geometry" />
        </mxCell>
        <mxCell id="w32qKdAZumEgRM9tF9tT-10" value="Comp draw 2." style="rounded=0;whiteSpace=wrap;html=1;" vertex="1" parent="1">
          <mxGeometry x="312" y="580" width="120" height="60" as="geometry" />
        </mxCell>
        <mxCell id="w32qKdAZumEgRM9tF9tT-33" value="" style="edgeStyle=orthogonalEdgeStyle;rounded=0;orthogonalLoop=1;jettySize=auto;html=1;" edge="1" parent="1" source="w32qKdAZumEgRM9tF9tT-24" target="w32qKdAZumEgRM9tF9tT-32">
          <mxGeometry relative="1" as="geometry" />
        </mxCell>
        <mxCell id="w32qKdAZumEgRM9tF9tT-24" value="Draw again?" style="rounded=0;whiteSpace=wrap;html=1;" vertex="1" parent="1">
          <mxGeometry x="312" y="752" width="120" height="60" as="geometry" />
        </mxCell>
        <mxCell id="w32qKdAZumEgRM9tF9tT-32" value="While not bust &amp;amp; player draw" style="rounded=0;whiteSpace=wrap;html=1;" vertex="1" parent="1">
          <mxGeometry x="160" y="752" width="120" height="60" as="geometry" />
        </mxCell>
        <mxCell id="w32qKdAZumEgRM9tF9tT-38" value="" style="edgeStyle=orthogonalEdgeStyle;rounded=0;orthogonalLoop=1;jettySize=auto;html=1;" edge="1" parent="1" source="w32qKdAZumEgRM9tF9tT-35" target="w32qKdAZumEgRM9tF9tT-37">
          <mxGeometry relative="1" as="geometry" />
        </mxCell>
        <mxCell id="w32qKdAZumEgRM9tF9tT-35" value="Win / Lose" style="rounded=0;whiteSpace=wrap;html=1;" vertex="1" parent="1">
          <mxGeometry x="647" y="752" width="120" height="60" as="geometry" />
        </mxCell>
        <mxCell id="w32qKdAZumEgRM9tF9tT-37" value="Play game?" style="whiteSpace=wrap;html=1;rounded=0;" vertex="1" parent="1">
          <mxGeometry x="647" y="828" width="120" height="60" as="geometry" />
        </mxCell>
        <mxCell id="w32qKdAZumEgRM9tF9tT-40" value="" style="endArrow=classic;html=1;rounded=0;entryX=1;entryY=0.5;entryDx=0;entryDy=0;exitX=1;exitY=0.5;exitDx=0;exitDy=0;" edge="1" parent="1" source="w32qKdAZumEgRM9tF9tT-37" target="w32qKdAZumEgRM9tF9tT-4">
          <mxGeometry relative="1" as="geometry">
            <mxPoint x="767" y="1100" as="sourcePoint" />
            <mxPoint x="432" y="325" as="targetPoint" />
            <Array as="points">
              <mxPoint x="800" y="858" />
              <mxPoint x="797" y="310" />
            </Array>
          </mxGeometry>
        </mxCell>
        <mxCell id="w32qKdAZumEgRM9tF9tT-41" value="Yes" style="edgeLabel;resizable=0;html=1;;align=center;verticalAlign=middle;" connectable="0" vertex="1" parent="w32qKdAZumEgRM9tF9tT-40">
          <mxGeometry relative="1" as="geometry" />
        </mxCell>
        <mxCell id="w32qKdAZumEgRM9tF9tT-63" value="no" style="edgeStyle=orthogonalEdgeStyle;rounded=0;orthogonalLoop=1;jettySize=auto;html=1;exitX=1;exitY=0.5;exitDx=0;exitDy=0;entryX=0;entryY=0.5;entryDx=0;entryDy=0;" edge="1" parent="1" source="w32qKdAZumEgRM9tF9tT-45" target="w32qKdAZumEgRM9tF9tT-35">
          <mxGeometry relative="1" as="geometry" />
        </mxCell>
        <mxCell id="w32qKdAZumEgRM9tF9tT-45" value="is comp under 16?" style="rounded=0;whiteSpace=wrap;html=1;" vertex="1" parent="1">
          <mxGeometry x="485" y="752" width="120" height="60" as="geometry" />
        </mxCell>
        <mxCell id="w32qKdAZumEgRM9tF9tT-49" value="Computer draw" style="rounded=0;whiteSpace=wrap;html=1;" vertex="1" parent="1">
          <mxGeometry x="485" y="862" width="120" height="60" as="geometry" />
        </mxCell>
        <mxCell id="w32qKdAZumEgRM9tF9tT-54" value="" style="endArrow=classic;html=1;rounded=0;exitX=1;exitY=0.5;exitDx=0;exitDy=0;entryX=0;entryY=0.5;entryDx=0;entryDy=0;" edge="1" parent="1" source="w32qKdAZumEgRM9tF9tT-24" target="w32qKdAZumEgRM9tF9tT-45">
          <mxGeometry relative="1" as="geometry">
            <mxPoint x="487" y="782" as="sourcePoint" />
            <mxPoint x="587" y="782" as="targetPoint" />
          </mxGeometry>
        </mxCell>
        <mxCell id="w32qKdAZumEgRM9tF9tT-55" value="no" style="edgeLabel;resizable=0;html=1;;align=center;verticalAlign=middle;" connectable="0" vertex="1" parent="w32qKdAZumEgRM9tF9tT-54">
          <mxGeometry relative="1" as="geometry" />
        </mxCell>
        <mxCell id="w32qKdAZumEgRM9tF9tT-57" value="" style="endArrow=classic;html=1;rounded=0;entryX=0.5;entryY=0;entryDx=0;entryDy=0;exitX=0.5;exitY=1;exitDx=0;exitDy=0;" edge="1" parent="1" source="w32qKdAZumEgRM9tF9tT-45" target="w32qKdAZumEgRM9tF9tT-49">
          <mxGeometry relative="1" as="geometry">
            <mxPoint x="550" y="822" as="sourcePoint" />
            <mxPoint x="585" y="836" as="targetPoint" />
          </mxGeometry>
        </mxCell>
        <mxCell id="w32qKdAZumEgRM9tF9tT-59" value="yes" style="edgeLabel;html=1;align=center;verticalAlign=middle;resizable=0;points=[];" vertex="1" connectable="0" parent="w32qKdAZumEgRM9tF9tT-57">
          <mxGeometry y="7" relative="1" as="geometry">
            <mxPoint x="-5" as="offset" />
          </mxGeometry>
        </mxCell>
        <mxCell id="w32qKdAZumEgRM9tF9tT-69" value="Show 1st computer card" style="rounded=0;whiteSpace=wrap;html=1;" vertex="1" parent="1">
          <mxGeometry x="312" y="660" width="120" height="60" as="geometry" />
        </mxCell>
        <mxCell id="w32qKdAZumEgRM9tF9tT-73" value="" style="endArrow=classic;html=1;rounded=0;exitX=0.5;exitY=1;exitDx=0;exitDy=0;entryX=0.5;entryY=0;entryDx=0;entryDy=0;" edge="1" parent="1" source="w32qKdAZumEgRM9tF9tT-69" target="w32qKdAZumEgRM9tF9tT-24">
          <mxGeometry width="50" height="50" relative="1" as="geometry">
            <mxPoint x="560" y="630" as="sourcePoint" />
            <mxPoint x="610" y="580" as="targetPoint" />
          </mxGeometry>
        </mxCell>
        <mxCell id="w32qKdAZumEgRM9tF9tT-75" style="edgeStyle=orthogonalEdgeStyle;rounded=0;orthogonalLoop=1;jettySize=auto;html=1;exitX=0.5;exitY=0;exitDx=0;exitDy=0;entryX=0.004;entryY=0.4;entryDx=0;entryDy=0;entryPerimeter=0;" edge="1" parent="1" source="w32qKdAZumEgRM9tF9tT-32" target="w32qKdAZumEgRM9tF9tT-69">
          <mxGeometry relative="1" as="geometry" />
        </mxCell>
      </root>
    </mxGraphModel>
  </diagram>
</mxfile>
